<svg xmlns="http://www.w3.org/2000/svg" viewBox="0 0 680 300" width="680" height="300" font-family="ui-sans-serif,system-ui,-apple-system,Segoe UI,Roboto,sans-serif" role="img" aria-label="Distribution of Digital Visibility Scores across 271 South West businesses, median 51">
<rect width="680" height="300" fill="#ffffff"/>
<text x="42" y="16" font-size="13" font-weight="600" fill="#0a0a0a">Digital Visibility Score — 271 businesses, 11 South West indices</text>
<line x1="42" y1="262.0" x2="666" y2="262.0" stroke="#ececec" stroke-width="1"/>
<text x="36" y="265.5" font-size="10" fill="#8a8a8a" text-anchor="end">0</text>
<line x1="42" y1="203.0" x2="666" y2="203.0" stroke="#ececec" stroke-width="1"/>
<text x="36" y="206.5" font-size="10" fill="#8a8a8a" text-anchor="end">21</text>
<line x1="42" y1="144.0" x2="666" y2="144.0" stroke="#ececec" stroke-width="1"/>
<text x="36" y="147.5" font-size="10" fill="#8a8a8a" text-anchor="end">42</text>
<line x1="42" y1="85.0" x2="666" y2="85.0" stroke="#ececec" stroke-width="1"/>
<text x="36" y="88.5" font-size="10" fill="#8a8a8a" text-anchor="end">63</text>
<line x1="42" y1="26.0" x2="666" y2="26.0" stroke="#ececec" stroke-width="1"/>
<text x="36" y="29.5" font-size="10" fill="#8a8a8a" text-anchor="end">84</text>
<text x="73.2" y="276.0" font-size="10" fill="#6b6b6b" text-anchor="middle">0–9</text>
<rect x="107.4" y="228.3" width="56.4" height="33.7" rx="2" fill="#d97706"/>
<text x="135.6" y="224.3" font-size="10" fill="#0a0a0a" text-anchor="middle">12</text>
<text x="135.6" y="276.0" font-size="10" fill="#6b6b6b" text-anchor="middle">10–19</text>
<rect x="169.8" y="225.5" width="56.4" height="36.5" rx="2" fill="#d97706"/>
<text x="198.0" y="221.5" font-size="10" fill="#0a0a0a" text-anchor="middle">13</text>
<text x="198.0" y="276.0" font-size="10" fill="#6b6b6b" text-anchor="middle">20–29</text>
<rect x="232.2" y="214.2" width="56.4" height="47.8" rx="2" fill="#d97706"/>
<text x="260.4" y="210.2" font-size="10" fill="#0a0a0a" text-anchor="middle">17</text>
<text x="260.4" y="276.0" font-size="10" fill="#6b6b6b" text-anchor="middle">30–39</text>
<rect x="294.6" y="45.7" width="56.4" height="216.3" rx="2" fill="#d97706"/>
<text x="322.8" y="41.7" font-size="10" fill="#0a0a0a" text-anchor="middle">77</text>
<text x="322.8" y="276.0" font-size="10" fill="#6b6b6b" text-anchor="middle">40–49</text>
<rect x="357.0" y="26.0" width="56.4" height="236.0" rx="2" fill="#d97706"/>
<text x="385.2" y="22.0" font-size="10" fill="#0a0a0a" text-anchor="middle">84</text>
<text x="385.2" y="276.0" font-size="10" fill="#6b6b6b" text-anchor="middle">50–59</text>
<rect x="419.4" y="127.1" width="56.4" height="134.9" rx="2" fill="#d97706"/>
<text x="447.6" y="123.1" font-size="10" fill="#0a0a0a" text-anchor="middle">48</text>
<text x="447.6" y="276.0" font-size="10" fill="#6b6b6b" text-anchor="middle">60–69</text>
<rect x="481.8" y="214.2" width="56.4" height="47.8" rx="2" fill="#d97706"/>
<text x="510.0" y="210.2" font-size="10" fill="#0a0a0a" text-anchor="middle">17</text>
<text x="510.0" y="276.0" font-size="10" fill="#6b6b6b" text-anchor="middle">70–79</text>
<rect x="544.2" y="253.6" width="56.4" height="8.4" rx="2" fill="#d97706"/>
<text x="572.4" y="249.6" font-size="10" fill="#0a0a0a" text-anchor="middle">3</text>
<text x="572.4" y="276.0" font-size="10" fill="#6b6b6b" text-anchor="middle">80–89</text>
<text x="634.8" y="276.0" font-size="10" fill="#6b6b6b" text-anchor="middle">90–99</text>
<line x1="360.2" y1="22" x2="360.2" y2="262" stroke="#0a0a0a" stroke-width="1.5" stroke-dasharray="4 3"/>
<text x="365.2" y="32" font-size="10" fill="#0a0a0a">median 51</text>
<text x="42" y="292" font-size="10" fill="#8a8a8a">Q3-2026 · CC BY 4.0 · hub.pyc.agency/indices</text>
</svg>
